<?xml version="1.0" standalone="no"?>
<!DOCTYPE svg PUBLIC "-//W3C//DTD SVG 20010904//EN"
 "http://www.w3.org/TR/2001/REC-SVG-20010904/DTD/svg10.dtd">
<svg version="1.0" xmlns="http://www.w3.org/2000/svg"
 width="1000" height="1000" viewBox="0 0 1000 1000"
 preserveAspectRatio="xMidYMid meet">

<g transform="translate(0.000000,1000.000000) scale(0.100000,-0.100000)"
fill="#000000" stroke="none">
<path d="M4453 7819 c-637 -61 -1188 -505 -1372 -1104 -54 -176 -66 -261 -66
-465 0 -204 12 -289 66 -465 118 -383 393 -715 760 -918 92 -52 146 -49 177
10 30 55 3 95 -104 152 -245 132 -458 357 -584 614 -97 200 -140 384 -140 607
0 222 43 407 139 605 193 396 561 678 1006 771 126 26 432 27 555 1 292 -62
537 -193 740 -397 195 -195 318 -417 381 -690 30 -127 36 -356 14 -495 -27
-177 -93 -363 -180 -504 -53 -88 -45 -148 22 -171 58 -21 94 10 166 140 185
337 235 769 132 1145 -204 749 -927 1240 -1712 1164z"/>
<path d="M4470 6564 c-119 -32 -217 -116 -274 -234 l-31 -65 -5 -1223 -5
-1223 -241 253 c-170 179 -255 261 -291 280 -95 52 -213 70 -312 47 -211 -48
-359 -263 -322 -470 23 -133 30 -142 557 -694 267 -280 596 -631 731 -780 135
-148 256 -276 269 -283 18 -10 260 -12 1163 -10 1308 3 1156 -11 1218 112 44
88 78 220 92 360 14 143 15 1821 1 1897 -50 269 -345 419 -599 303 -29 -13
-57 -24 -62 -24 -5 0 -9 24 -9 53 0 216 -192 397 -420 397 -71 0 -180 -28
-215 -54 -11 -9 -23 -16 -26 -16 -3 0 -11 25 -18 55 -24 106 -103 215 -196
269 -114 67 -278 75 -398 19 l-67 -32 0 352 c0 384 -5 427 -57 516 -95 162
-299 244 -483 195z m215 -183 c46 -21 98 -69 123 -115 15 -28 17 -86 22 -589
l5 -559 28 -24 c39 -33 81 -31 118 5 22 22 29 39 29 68 0 53 40 134 86 171
102 84 236 79 332 -12 64 -59 66 -70 72 -304 l5 -214 28 -24 c57 -48 147 -15
147 54 0 56 29 129 68 169 55 56 104 77 182 77 98 0 174 -47 223 -139 20 -37
22 -57 25 -270 1 -126 5 -240 7 -253 7 -29 64 -57 99 -48 43 11 64 40 71 100
5 35 19 75 39 108 97 163 338 154 429 -16 l22 -41 0 -955 c0 -877 -1 -962 -18
-1037 -10 -46 -27 -107 -39 -138 l-21 -55 -1072 0 -1073 0 -235 257 c-129 142
-447 481 -706 753 -260 272 -481 512 -492 533 -84 161 36 349 222 349 102 0
120 -14 420 -330 399 -420 370 -392 412 -392 24 0 46 8 64 24 l28 24 5 1339 5
1338 22 40 c27 51 57 79 113 104 58 26 150 27 205 2z"/>
</g>
</svg>
