<?xml version="1.0" standalone="no"?>
<!DOCTYPE svg PUBLIC "-//W3C//DTD SVG 20010904//EN"
 "http://www.w3.org/TR/2001/REC-SVG-20010904/DTD/svg10.dtd">
<svg version="1.0" xmlns="http://www.w3.org/2000/svg"
 width="1000" height="1000" viewBox="0 0 1000 1000"
 preserveAspectRatio="xMidYMid meet">

<g transform="translate(0.000000,1000.000000) scale(0.100000,-0.100000)"
fill="#000000" stroke="none">
<path d="M4532 7818 c-17 -13 -139 -142 -270 -288 -132 -146 -457 -492 -721
-770 -521 -547 -529 -556 -552 -689 -51 -290 236 -545 527 -467 108 29 146 59
391 316 129 135 238 246 243 248 6 2 11 -479 12 -1215 l3 -1219 37 -76 c58
-116 151 -191 278 -224 205 -52 421 58 503 258 21 51 22 70 25 430 l3 376 67
-31 c63 -30 74 -32 177 -32 142 1 199 22 290 107 69 64 107 129 126 214 7 30
15 53 18 51 84 -46 132 -61 213 -65 68 -3 101 0 156 17 164 50 284 197 294
364 2 31 6 59 9 62 3 3 31 -6 62 -20 121 -56 252 -53 374 7 69 34 149 111 182
176 51 101 51 92 51 1032 0 513 -4 919 -10 982 -13 137 -49 276 -93 364 -62
123 91 109 -1221 112 l-1143 2 -31 -22z m2262 -235 c51 -157 51 -152 51 -1163
l0 -945 -22 -40 c-59 -110 -186 -161 -301 -121 -91 32 -144 98 -163 202 -14
76 -31 102 -73 109 -42 8 -94 -16 -101 -48 -2 -12 -6 -125 -7 -252 -3 -214 -5
-233 -25 -270 -48 -90 -127 -139 -223 -140 -53 0 -75 6 -118 30 -79 43 -132
131 -132 218 0 69 -91 101 -147 53 l-28 -24 -5 -214 c-5 -231 -6 -233 -69
-301 -83 -90 -235 -98 -333 -17 -43 36 -88 121 -88 168 0 63 -34 101 -91 102
-39 0 -76 -27 -84 -63 -3 -12 -6 -265 -8 -562 -2 -600 2 -563 -72 -637 -109
-108 -298 -85 -380 46 l-30 49 -5 1338 -5 1337 -24 26 c-18 20 -34 26 -64 26
-47 0 -22 24 -426 -402 -289 -304 -307 -319 -408 -319 -79 -1 -134 23 -187 82
-50 56 -72 118 -63 184 9 64 30 100 101 175 34 36 269 283 522 550 254 267
545 578 649 693 l187 207 1073 0 1073 0 26 -77z"/>
<path d="M3840 5134 c-348 -194 -619 -511 -744 -873 -66 -189 -80 -279 -80
-511 0 -174 3 -221 22 -306 69 -321 225 -600 460 -825 411 -395 1008 -541
1567 -383 498 141 912 534 1074 1020 59 177 75 279 75 494 0 164 -4 212 -23
300 -30 141 -72 264 -132 386 -86 176 -126 216 -196 193 -66 -22 -71 -80 -13
-180 237 -405 252 -907 41 -1323 -178 -349 -497 -611 -876 -721 -152 -44 -270
-58 -450 -52 -175 6 -257 21 -412 72 -211 70 -389 181 -553 345 -366 364 -498
878 -355 1375 99 343 371 670 702 844 66 36 90 71 79 116 -19 74 -86 84 -186
29z"/>
</g>
</svg>
